<svg xmlns="http://www.w3.org/2000/svg" xmlns:xlink="http://www.w3.org/1999/xlink" viewBox="0 0 340.18 484.7"><defs><style>.cls-1{fill:url(#Dégradé_sans_nom_7);}.cls-2{fill:url(#Dégradé_sans_nom_8);}.cls-3{fill:#fff;}</style><linearGradient id="Dégradé_sans_nom_7" x1="178.09" y1="402.86" x2="286.4" y2="294.56" gradientUnits="userSpaceOnUse"><stop offset="0" stop-color="#ea6216"/><stop offset="1" stop-color="#f7c100"/></linearGradient><linearGradient id="Dégradé_sans_nom_8" x1="50.96" y1="283.85" x2="287.7" y2="47.11" gradientUnits="userSpaceOnUse"><stop offset="0" stop-color="#ea6216"/><stop offset="0.83" stop-color="#f7c100"/></linearGradient></defs><g id="Calque_2" data-name="Calque 2"><g id="Calque_1-2" data-name="Calque 1"><path class="cls-1" d="M123.07,352h0a149.72,149.72,0,0,0,211.74,0l5.37-5.38L234.32,240.77Z"/><path class="cls-2" d="M228.94,0,0,228.94,105.87,334.81,228.94,211.73A149.71,149.71,0,0,0,228.94,0Z"/><path class="cls-3" d="M61.05,434.19H53.12v28H48.64v-28H40.72v-4.44H61.05Z"/><path class="cls-3" d="M101.39,429.75v32.42H97v-8.5H84.05v8.5H79.63V429.75h4.42v19.48H97V429.75Z"/><path class="cls-3" d="M124.44,434.17v10h11v4.44h-11v9.13h14.31v4.44H120V429.75h18.75v4.42Z"/><path class="cls-3" d="M176.32,462.17H157.49V429.75h4.42v28h14.41Z"/><path class="cls-3" d="M199.35,462.17h-4.42V429.75h4.42Z"/><path class="cls-3" d="M222.72,457.42a16.21,16.21,0,1,1,11.48,4.75A15.65,15.65,0,0,1,222.72,457.42Zm3-19.92A11.94,11.94,0,1,0,234.2,434,11.55,11.55,0,0,0,225.73,437.5Z"/><path class="cls-3" d="M284.25,462.17l-10.89-16.86v16.86H269V429.75l15.25,23.33,15.22-23.33v32.42h-4.36V445.31Z"/><path class="cls-3" d="M71.09,478.66a7.81,7.81,0,0,1-.38,2.59,4.41,4.41,0,0,1-2.89,2.93,7.85,7.85,0,0,1-2.52.36H62.88a.64.64,0,0,1-.38-.14.56.56,0,0,1-.18-.48V473.74a.56.56,0,0,1,.18-.48.64.64,0,0,1,.38-.14h2.59a7.06,7.06,0,0,1,2.5.39,4.58,4.58,0,0,1,1.72,1.1,4.77,4.77,0,0,1,1,1.74A7.19,7.19,0,0,1,71.09,478.66Zm-1.59.06a6.33,6.33,0,0,0-.23-1.72,4,4,0,0,0-.72-1.38,3.36,3.36,0,0,0-1.24-.91,4.83,4.83,0,0,0-1.93-.32H63.83v8.88H65.4a5.24,5.24,0,0,0,1.84-.28,3,3,0,0,0,1.25-.83,3.65,3.65,0,0,0,.76-1.42A7.48,7.48,0,0,0,69.5,478.72Z"/><path class="cls-3" d="M79.46,484.31a.21.21,0,0,1,0,.12.25.25,0,0,1-.13.09l-.23.05-.37,0-.36,0-.23-.05a.25.25,0,0,1-.13-.09.21.21,0,0,1,0-.12v-11a.19.19,0,0,1,0-.12s.07-.06.13-.08l.24-.06.34,0,.37,0,.23.06a.24.24,0,0,1,.13.08.27.27,0,0,1,0,.12Z"/><path class="cls-3" d="M95.59,474.68a2.33,2.33,0,0,1,0,.29.81.81,0,0,1,0,.21.31.31,0,0,1-.09.12.19.19,0,0,1-.12,0,.86.86,0,0,1-.35-.17,5.79,5.79,0,0,0-.66-.37,5.89,5.89,0,0,0-1-.37,5.08,5.08,0,0,0-1.37-.17,4,4,0,0,0-1.7.35,3.51,3.51,0,0,0-1.27.95,4.47,4.47,0,0,0-.8,1.44,5.93,5.93,0,0,0-.27,1.82,5.77,5.77,0,0,0,.3,1.94,4,4,0,0,0,.84,1.43,3.49,3.49,0,0,0,1.29.88,4.3,4.3,0,0,0,1.63.3,4.94,4.94,0,0,0,1.07-.12,4.08,4.08,0,0,0,1-.39v-3.32H91.4a.25.25,0,0,1-.23-.15,1.13,1.13,0,0,1-.07-.47,1.28,1.28,0,0,1,0-.29.74.74,0,0,1,0-.19.27.27,0,0,1,.1-.11.17.17,0,0,1,.13,0H95a.48.48,0,0,1,.2,0,.59.59,0,0,1,.17.1.46.46,0,0,1,.13.2.79.79,0,0,1,0,.28v4.35a1,1,0,0,1-.08.4.64.64,0,0,1-.33.29,5.24,5.24,0,0,1-.67.28,7.93,7.93,0,0,1-.83.25,5.24,5.24,0,0,1-.88.16,6.36,6.36,0,0,1-.87.06,6.45,6.45,0,0,1-2.36-.41,4.94,4.94,0,0,1-1.76-1.17,5.07,5.07,0,0,1-1.1-1.82,7.55,7.55,0,0,1,0-4.82,5.2,5.2,0,0,1,1.16-1.88,5.11,5.11,0,0,1,1.79-1.21,6.68,6.68,0,0,1,3.54-.31,9.31,9.31,0,0,1,1,.27,4.42,4.42,0,0,1,.75.33,1.87,1.87,0,0,1,.41.3.6.6,0,0,1,.16.26A1.61,1.61,0,0,1,95.59,474.68Z"/><path class="cls-3" d="M104.44,484.31a.21.21,0,0,1,0,.12.25.25,0,0,1-.13.09l-.23.05-.37,0-.36,0-.24-.05a.23.23,0,0,1-.12-.09.21.21,0,0,1,0-.12v-11a.19.19,0,0,1,0-.12s.07-.06.13-.08l.24-.06.34,0,.37,0,.23.06a.24.24,0,0,1,.13.08.27.27,0,0,1,0,.12Z"/><path class="cls-3" d="M119.15,473.78a2.33,2.33,0,0,1,0,.29.52.52,0,0,1-.06.2.36.36,0,0,1-.1.11.24.24,0,0,1-.12,0h-3.21v9.9a.21.21,0,0,1,0,.12.19.19,0,0,1-.12.09l-.24.05-.36,0-.36,0-.24-.05a.25.25,0,0,1-.13-.09.21.21,0,0,1,0-.12v-9.9h-3.21a.28.28,0,0,1-.13,0,.24.24,0,0,1-.09-.11.52.52,0,0,1-.06-.2,2.33,2.33,0,0,1,0-.29,2.66,2.66,0,0,1,0-.3.65.65,0,0,1,.06-.21.2.2,0,0,1,.09-.11.28.28,0,0,1,.13,0h7.94a.25.25,0,0,1,.12,0,.27.27,0,0,1,.1.11.65.65,0,0,1,.06.21A2.66,2.66,0,0,1,119.15,473.78Z"/><path class="cls-3" d="M132.45,484a1.19,1.19,0,0,1,.07.31.21.21,0,0,1-.06.18.45.45,0,0,1-.24.08l-.43,0h-.44a1.09,1.09,0,0,1-.25-.05.28.28,0,0,1-.12-.08l-.08-.13-1-2.78h-4.74l-.94,2.74a.37.37,0,0,1-.07.14.4.4,0,0,1-.12.1,1.11,1.11,0,0,1-.24.05l-.4,0-.42,0a.38.38,0,0,1-.23-.09.18.18,0,0,1-.06-.18.88.88,0,0,1,.07-.31l3.83-10.6a.35.35,0,0,1,.09-.16.55.55,0,0,1,.17-.1l.28-.05h.91l.3.05a.55.55,0,0,1,.17.1.48.48,0,0,1,.1.17Zm-4.92-9.36h0l-2,5.69h4Z"/><path class="cls-3" d="M144.79,483.88a2.33,2.33,0,0,1,0,.29.52.52,0,0,1-.06.2.27.27,0,0,1-.1.13.25.25,0,0,1-.13,0h-5a.64.64,0,0,1-.38-.14.56.56,0,0,1-.18-.48V473.35a.27.27,0,0,1,0-.12.24.24,0,0,1,.13-.08l.24-.06.36,0,.36,0,.24.06a.18.18,0,0,1,.12.08.28.28,0,0,1,0,.12v9.87h4.09a.25.25,0,0,1,.13,0,.29.29,0,0,1,.1.12.47.47,0,0,1,.06.2A2.36,2.36,0,0,1,144.79,483.88Z"/><path class="cls-3" d="M165.71,481.34a3.22,3.22,0,0,1-.3,1.42,3,3,0,0,1-.82,1.07,3.45,3.45,0,0,1-1.23.65,5.1,5.1,0,0,1-1.53.22,6,6,0,0,1-1.07-.09,7.7,7.7,0,0,1-.87-.24,3.89,3.89,0,0,1-.64-.29,1.39,1.39,0,0,1-.36-.26.59.59,0,0,1-.15-.27,1.26,1.26,0,0,1-.05-.43,1.47,1.47,0,0,1,0-.32.54.54,0,0,1,0-.21.2.2,0,0,1,.09-.11.21.21,0,0,1,.12,0,.73.73,0,0,1,.35.15,4.18,4.18,0,0,0,.58.32,4.72,4.72,0,0,0,.85.33,3.63,3.63,0,0,0,1.15.16,3.15,3.15,0,0,0,.9-.13,2.19,2.19,0,0,0,.71-.38,1.63,1.63,0,0,0,.45-.59,1.92,1.92,0,0,0,.16-.81,1.49,1.49,0,0,0-.22-.83,2.2,2.2,0,0,0-.58-.6,5.85,5.85,0,0,0-.83-.48l-.94-.44a8.6,8.6,0,0,1-1-.5,3.93,3.93,0,0,1-.82-.64,3.11,3.11,0,0,1-.59-.87A2.87,2.87,0,0,1,159,476a3.08,3.08,0,0,1,.26-1.28,2.66,2.66,0,0,1,.72-.94,3.44,3.44,0,0,1,1.11-.58,4.65,4.65,0,0,1,1.38-.19,5,5,0,0,1,.76.06,6.88,6.88,0,0,1,.72.18,3.1,3.1,0,0,1,.61.25,1.31,1.31,0,0,1,.34.22.64.64,0,0,1,.12.13.83.83,0,0,1,0,.12q0,.07,0,.18v.28a2.44,2.44,0,0,1,0,.28,1.12,1.12,0,0,1,0,.21.35.35,0,0,1-.07.12.17.17,0,0,1-.11,0,.72.72,0,0,1-.31-.12,5.58,5.58,0,0,0-.51-.28,3.39,3.39,0,0,0-.71-.28,2.92,2.92,0,0,0-.92-.13,2.37,2.37,0,0,0-.83.13,1.51,1.51,0,0,0-.58.34,1.24,1.24,0,0,0-.34.5,1.59,1.59,0,0,0-.12.62,1.57,1.57,0,0,0,.22.82,2.4,2.4,0,0,0,.59.6,5,5,0,0,0,.83.49l1,.44c.32.15.64.32.95.5a4,4,0,0,1,.83.63,2.91,2.91,0,0,1,.59.87A2.82,2.82,0,0,1,165.71,481.34Z"/><path class="cls-3" d="M182,478.7a8.73,8.73,0,0,1-.33,2.49,5.11,5.11,0,0,1-1,1.9,4.24,4.24,0,0,1-1.62,1.2,5.81,5.81,0,0,1-2.29.41,5.73,5.73,0,0,1-2.22-.38,3.94,3.94,0,0,1-1.56-1.11,4.79,4.79,0,0,1-.91-1.82,9.41,9.41,0,0,1-.3-2.5,8.54,8.54,0,0,1,.33-2.45,4.91,4.91,0,0,1,1-1.87,4.08,4.08,0,0,1,1.63-1.19,6.48,6.48,0,0,1,4.48,0,4.06,4.06,0,0,1,1.56,1.1,4.79,4.79,0,0,1,.92,1.8A9.19,9.19,0,0,1,182,478.7Zm-1.61.1a9.32,9.32,0,0,0-.17-1.8,4.4,4.4,0,0,0-.57-1.45,2.89,2.89,0,0,0-1.07-.95,3.61,3.61,0,0,0-1.66-.35,3.48,3.48,0,0,0-1.66.37,3.12,3.12,0,0,0-1.08,1,4.06,4.06,0,0,0-.6,1.44,8.15,8.15,0,0,0-.18,1.74,9.73,9.73,0,0,0,.16,1.85,4.05,4.05,0,0,0,.57,1.46,2.64,2.64,0,0,0,1.06.95,3.6,3.6,0,0,0,1.67.34,3.41,3.41,0,0,0,1.67-.37,3,3,0,0,0,1.09-1,4,4,0,0,0,.59-1.46A8.27,8.27,0,0,0,180.35,478.8Z"/><path class="cls-3" d="M194.79,483.88a2.33,2.33,0,0,1,0,.29.52.52,0,0,1-.06.2.33.33,0,0,1-.09.13.33.33,0,0,1-.14,0h-5a.64.64,0,0,1-.38-.14.56.56,0,0,1-.18-.48V473.35a.19.19,0,0,1,0-.12.18.18,0,0,1,.12-.08l.24-.06.36,0,.36,0,.24.06a.18.18,0,0,1,.12.08.19.19,0,0,1,0,.12v9.87h4.09a.33.33,0,0,1,.14,0,.38.38,0,0,1,.09.12.47.47,0,0,1,.06.2A2.36,2.36,0,0,1,194.79,483.88Z"/><path class="cls-3" d="M209.17,480.32a5.38,5.38,0,0,1-.3,1.86,3.78,3.78,0,0,1-.87,1.38,3.62,3.62,0,0,1-1.37.85,5.36,5.36,0,0,1-1.85.29,5.22,5.22,0,0,1-1.72-.27,3.52,3.52,0,0,1-2.19-2.14,5.28,5.28,0,0,1-.3-1.85v-7.09a.28.28,0,0,1,0-.12.18.18,0,0,1,.12-.08l.23-.06.37,0,.36,0,.24.06a.25.25,0,0,1,.12.08.27.27,0,0,1,0,.12v6.9a4.48,4.48,0,0,0,.2,1.39,2.55,2.55,0,0,0,.56,1,2.24,2.24,0,0,0,.88.59,3.24,3.24,0,0,0,1.16.2,3.36,3.36,0,0,0,1.18-.2,2.15,2.15,0,0,0,.87-.58,2.66,2.66,0,0,0,.55-1,4.46,4.46,0,0,0,.19-1.34v-7a.27.27,0,0,1,0-.12.25.25,0,0,1,.12-.08l.24-.06.36,0,.36,0,.23.06a.18.18,0,0,1,.12.08.19.19,0,0,1,0,.12Z"/><path class="cls-3" d="M223.85,473.78a1.28,1.28,0,0,1,0,.29.83.83,0,0,1-.05.2.36.36,0,0,1-.1.11.28.28,0,0,1-.13,0h-3.21v9.9a.21.21,0,0,1,0,.12.25.25,0,0,1-.13.09l-.23.05-.37,0-.36,0-.24-.05a.19.19,0,0,1-.12-.09.21.21,0,0,1,0-.12v-9.9h-3.21a.24.24,0,0,1-.12,0,.36.36,0,0,1-.1-.11.83.83,0,0,1,0-.2,1.23,1.23,0,0,1,0-.29,1.39,1.39,0,0,1,0-.3,1.08,1.08,0,0,1,0-.21.27.27,0,0,1,.1-.11.25.25,0,0,1,.12,0h7.94a.28.28,0,0,1,.13,0,.27.27,0,0,1,.1.11,1.08,1.08,0,0,1,.05.21A1.42,1.42,0,0,1,223.85,473.78Z"/><path class="cls-3" d="M231.53,484.31a.21.21,0,0,1,0,.12.23.23,0,0,1-.12.09l-.24.05-.36,0-.37,0-.23-.05a.25.25,0,0,1-.13-.09.21.21,0,0,1,0-.12v-11a.19.19,0,0,1,0-.12s.07-.06.13-.08l.24-.06.35,0,.36,0,.24.06a.21.21,0,0,1,.12.08.27.27,0,0,1,0,.12Z"/><path class="cls-3" d="M248.65,478.7a8.73,8.73,0,0,1-.33,2.49,5.11,5.11,0,0,1-1,1.9,4.24,4.24,0,0,1-1.62,1.2,5.81,5.81,0,0,1-2.29.41,5.73,5.73,0,0,1-2.22-.38,3.94,3.94,0,0,1-1.56-1.11,4.79,4.79,0,0,1-.91-1.82,9.41,9.41,0,0,1-.3-2.5,8.54,8.54,0,0,1,.33-2.45,4.91,4.91,0,0,1,1-1.87,4.08,4.08,0,0,1,1.63-1.19,6.48,6.48,0,0,1,4.48,0,4.06,4.06,0,0,1,1.56,1.1,4.79,4.79,0,0,1,.92,1.8A9.19,9.19,0,0,1,248.65,478.7Zm-1.61.1a9.32,9.32,0,0,0-.17-1.8,4.4,4.4,0,0,0-.57-1.45,2.89,2.89,0,0,0-1.07-.95,3.61,3.61,0,0,0-1.66-.35,3.48,3.48,0,0,0-1.66.37,3.12,3.12,0,0,0-1.08,1,4.06,4.06,0,0,0-.6,1.44,8.15,8.15,0,0,0-.18,1.74,9.73,9.73,0,0,0,.16,1.85,4.05,4.05,0,0,0,.57,1.46,2.64,2.64,0,0,0,1.06.95,3.6,3.6,0,0,0,1.67.34,3.41,3.41,0,0,0,1.67-.37,3,3,0,0,0,1.09-1,4,4,0,0,0,.59-1.46A8.27,8.27,0,0,0,247,478.8Z"/><path class="cls-3" d="M264.19,483.91a.67.67,0,0,1-.06.3.53.53,0,0,1-.16.2.45.45,0,0,1-.21.12,1,1,0,0,1-.24,0H263a1.76,1.76,0,0,1-.42,0,1.19,1.19,0,0,1-.33-.18A1.57,1.57,0,0,1,262,484a4.31,4.31,0,0,1-.34-.56l-3.48-6.5c-.19-.33-.37-.68-.55-1.05s-.36-.72-.52-1.07h0c0,.42,0,.85,0,1.3s0,.87,0,1.31v6.89a.19.19,0,0,1,0,.12.22.22,0,0,1-.13.09l-.23.05-.37,0-.36,0-.23-.05a.23.23,0,0,1-.16-.21V473.78a.61.61,0,0,1,.2-.51.71.71,0,0,1,.44-.15h.74a1.87,1.87,0,0,1,.45.05,1.09,1.09,0,0,1,.31.14,1.3,1.3,0,0,1,.28.29,3,3,0,0,1,.27.45l2.68,5,.48.9c.15.29.3.57.44.86l.42.83.42.82h0c0-.46,0-.94,0-1.45v-7.64a.15.15,0,0,1,0-.11.25.25,0,0,1,.12-.1,1.11,1.11,0,0,1,.24-.05,3.34,3.34,0,0,1,.73,0,1,1,0,0,1,.23.05.4.4,0,0,1,.12.1.21.21,0,0,1,0,.11Z"/><path class="cls-3" d="M277.87,481.34a3.22,3.22,0,0,1-.3,1.42,3.09,3.09,0,0,1-.82,1.07,3.45,3.45,0,0,1-1.23.65,5.1,5.1,0,0,1-1.53.22,5.93,5.93,0,0,1-1.07-.09,7.7,7.7,0,0,1-.87-.24,3.54,3.54,0,0,1-.64-.29,1.71,1.71,0,0,1-.37-.26.87.87,0,0,1-.15-.27,1.65,1.65,0,0,1,0-.43,2.92,2.92,0,0,1,0-.32.76.76,0,0,1,.06-.21.24.24,0,0,1,.08-.11.28.28,0,0,1,.13,0,.73.73,0,0,1,.35.15,4.65,4.65,0,0,0,.57.32,5.17,5.17,0,0,0,.86.33,3.63,3.63,0,0,0,1.15.16,3.15,3.15,0,0,0,.9-.13,2.3,2.3,0,0,0,.71-.38,1.75,1.75,0,0,0,.45-.59,1.92,1.92,0,0,0,.16-.81,1.49,1.49,0,0,0-.22-.83,2.2,2.2,0,0,0-.58-.6,5.85,5.85,0,0,0-.83-.48l-.95-.44a9.45,9.45,0,0,1-.94-.5,3.69,3.69,0,0,1-.82-.64,3.11,3.11,0,0,1-.59-.87,2.87,2.87,0,0,1-.22-1.19,3.08,3.08,0,0,1,.26-1.28,2.66,2.66,0,0,1,.72-.94,3.49,3.49,0,0,1,1.1-.58,4.75,4.75,0,0,1,1.38-.19,5,5,0,0,1,.77.06q.38.08.72.18a3.1,3.1,0,0,1,.61.25,1.31,1.31,0,0,1,.34.22.37.37,0,0,1,.11.13.33.33,0,0,1,.05.12.9.9,0,0,1,0,.18,2.27,2.27,0,0,1,0,.28,2.44,2.44,0,0,1,0,.28,1.12,1.12,0,0,1,0,.21.35.35,0,0,1-.07.12.17.17,0,0,1-.12,0,.74.74,0,0,1-.3-.12,5.58,5.58,0,0,0-.51-.28,3.39,3.39,0,0,0-.71-.28,2.92,2.92,0,0,0-.92-.13,2.33,2.33,0,0,0-.83.13,1.51,1.51,0,0,0-.58.34,1.24,1.24,0,0,0-.34.5,1.59,1.59,0,0,0-.12.62,1.57,1.57,0,0,0,.22.82,2.24,2.24,0,0,0,.59.6,5,5,0,0,0,.83.49l1,.44c.32.15.64.32,1,.5a4,4,0,0,1,.83.63,2.91,2.91,0,0,1,.59.87A2.82,2.82,0,0,1,277.87,481.34Z"/></g></g></svg>