<svg xmlns="http://www.w3.org/2000/svg" xmlns:xlink="http://www.w3.org/1999/xlink" viewBox="0 0 139.08 222.22"><defs><style>.cls-1{fill:url(#Dégradé_sans_nom_6);}.cls-2{fill:url(#Dégradé_sans_nom_6-2);}.cls-3{fill:url(#Dégradé_sans_nom_8);}.cls-4{fill:url(#Dégradé_sans_nom_9);}.cls-5{fill:#dbd03f;}.cls-6{fill:#eee648;}</style><linearGradient id="Dégradé_sans_nom_6" y1="100.31" x2="67.48" y2="100.31" gradientUnits="userSpaceOnUse"><stop offset="0" stop-color="#c5dc9e"/><stop offset="1" stop-color="#a5b986"/></linearGradient><linearGradient id="Dégradé_sans_nom_6-2" x1="71.61" y1="111.59" x2="139.08" y2="111.59" xlink:href="#Dégradé_sans_nom_6"/><linearGradient id="Dégradé_sans_nom_8" x1="55.81" y1="87.35" x2="112.72" y2="87.35" gradientUnits="userSpaceOnUse"><stop offset="0" stop-color="#c5dc9e"/><stop offset="0.93" stop-color="#a5b986"/></linearGradient><linearGradient id="Dégradé_sans_nom_9" x1="22.33" y1="85.33" x2="71.61" y2="85.33" gradientUnits="userSpaceOnUse"><stop offset="0.03" stop-color="#a5b986"/><stop offset="1" stop-color="#c5dc9e"/></linearGradient></defs><g id="Calque_2" data-name="Calque 2"><g id="Calque_1-2" data-name="Calque 1"><path class="cls-1" d="M60.7,128.62s-27.36-21.24-17.28-20.88S4.9,74.63,22.54,76.06-14.54,40.61,3.82,41.78s47.52,18.8,59,86.84S60.7,128.62,60.7,128.62Z"/><path class="cls-2" d="M78.38,139.9S105.74,118.66,95.66,119s38.52-33.11,20.88-31.68,37.08-35.45,18.72-34.28-47.52,18.8-59,86.84S78.38,139.9,78.38,139.9Z"/><path class="cls-3" d="M74,132.24S96.43,95.06,84.8,100,114.94,43.92,95,53.55,122.36-4.64,101.4,5,54.28,48.41,71.46,133.21,74,132.24,74,132.24Z"/><path class="cls-4" d="M66.57,130.38S40.31,93.66,52.77,97.86,17,42.15,38.49,50.52,5.38-7.58,27.88.72,80.23,41.91,69.27,131.18,66.57,130.38,66.57,130.38Z"/><polygon class="cls-5" points="122.84 123.58 20.38 123.58 21.72 141.1 121.49 141.1 122.84 123.58"/><polygon class="cls-6" points="21.72 141.1 27.94 222.22 115.28 222.22 121.49 141.1 21.72 141.1"/><polygon class="cls-6" points="128.6 137.98 14.62 137.98 12.92 123.58 130.3 123.58 128.6 137.98"/></g></g></svg>