<svg xmlns="http://www.w3.org/2000/svg" xmlns:xlink="http://www.w3.org/1999/xlink" viewBox="0 0 154.54 84.79"><defs><style>.cls-1{fill:url(#Dégradé_sans_nom_2);}.cls-2{fill:url(#Dégradé_sans_nom_2-2);}.cls-3{fill:url(#Dégradé_sans_nom_2-3);}.cls-4{fill:url(#Dégradé_sans_nom_2-4);}.cls-5{fill:url(#Dégradé_sans_nom_2-5);}</style><linearGradient id="Dégradé_sans_nom_2" y1="5.52" x2="154.54" y2="5.52" gradientUnits="userSpaceOnUse"><stop offset="0" stop-color="#ea6216"/><stop offset="0.83" stop-color="#f7c100"/></linearGradient><linearGradient id="Dégradé_sans_nom_2-2" y1="23.96" x2="154.54" y2="23.96" xlink:href="#Dégradé_sans_nom_2"/><linearGradient id="Dégradé_sans_nom_2-3" y1="42.39" x2="154.54" y2="42.39" xlink:href="#Dégradé_sans_nom_2"/><linearGradient id="Dégradé_sans_nom_2-4" y1="60.83" x2="154.54" y2="60.83" xlink:href="#Dégradé_sans_nom_2"/><linearGradient id="Dégradé_sans_nom_2-5" y1="79.27" x2="154.54" y2="79.27" xlink:href="#Dégradé_sans_nom_2"/></defs><g id="Calque_2" data-name="Calque 2"><g id="Calque_1-2" data-name="Calque 1"><path class="cls-1" d="M141.14,11C133.82,11,128,6.5,127.75,6.3c-.06,0-5.55-4.3-12.16-4.3s-12.1,4.26-12.15,4.3C103.19,6.5,97.36,11,90,11S76.89,6.5,76.65,6.3C76.6,6.26,71.1,2,64.49,2S52.39,6.26,52.34,6.3C52.1,6.5,46.26,11,38.94,11S25.79,6.5,25.55,6.3C25.5,6.26,20,2,13.4,2S1.29,6.26,1.24,6.3L0,4.74C.24,4.54,6.08,0,13.4,0S26.55,4.54,26.79,4.74c.05,0,5.55,4.3,12.15,4.3S51.05,4.78,51.1,4.73C51.34,4.54,57.18,0,64.49,0s13.16,4.54,13.4,4.74c0,0,5.55,4.3,12.15,4.3s12.11-4.26,12.16-4.31c.24-.19,6.08-4.73,13.39-4.73S128.74,4.54,129,4.74c0,0,5.55,4.3,12.15,4.3s12.1-4.26,12.16-4.31l1.24,1.57C154.29,6.5,148.46,11,141.14,11Z"/><path class="cls-2" d="M141.14,29.48c-7.32,0-13.15-4.55-13.39-4.74-.06,0-5.55-4.3-12.16-4.3s-12.1,4.26-12.15,4.3c-.25.19-6.08,4.74-13.4,4.74s-13.15-4.55-13.39-4.74c-.05,0-5.55-4.3-12.16-4.3s-12.1,4.26-12.15,4.3c-.25.19-6.08,4.74-13.4,4.74s-13.15-4.55-13.39-4.74c-.05,0-5.55-4.3-12.15-4.3S1.29,24.7,1.24,24.74L0,23.17c.24-.19,6.08-4.73,13.4-4.73S26.55,23,26.79,23.17c.05,0,5.55,4.31,12.15,4.31s12.11-4.27,12.16-4.31c.24-.19,6.08-4.73,13.39-4.73S77.65,23,77.89,23.17c0,0,5.55,4.31,12.15,4.31s12.11-4.27,12.16-4.31c.24-.19,6.08-4.73,13.39-4.73S128.74,23,129,23.17c0,0,5.55,4.31,12.15,4.31s12.1-4.27,12.16-4.31l1.24,1.57C154.29,24.93,148.46,29.48,141.14,29.48Z"/><path class="cls-3" d="M141.14,47.91c-7.32,0-13.15-4.54-13.39-4.73-.06,0-5.55-4.3-12.16-4.3s-12.1,4.26-12.15,4.3c-.25.19-6.08,4.73-13.4,4.73s-13.15-4.54-13.39-4.73c-.05,0-5.55-4.3-12.16-4.3s-12.1,4.26-12.15,4.3c-.25.19-6.08,4.73-13.4,4.73s-13.15-4.54-13.39-4.73c-.05,0-5.55-4.3-12.15-4.3S1.29,43.14,1.24,43.18L0,41.61c.24-.19,6.08-4.73,13.4-4.73s13.15,4.54,13.39,4.73c.05,0,5.55,4.3,12.15,4.3s12.11-4.26,12.16-4.3c.24-.19,6.08-4.73,13.39-4.73s13.16,4.54,13.4,4.73c0,0,5.55,4.3,12.15,4.3s12.11-4.26,12.16-4.3c.24-.19,6.08-4.73,13.39-4.73s13.15,4.54,13.4,4.73c0,0,5.55,4.3,12.15,4.3s12.1-4.26,12.16-4.3l1.24,1.57C154.29,43.37,148.46,47.91,141.14,47.91Z"/><path class="cls-4" d="M141.14,66.35c-7.32,0-13.15-4.54-13.39-4.73-.06,0-5.55-4.31-12.16-4.31s-12.1,4.26-12.15,4.31c-.25.19-6.08,4.73-13.4,4.73s-13.15-4.54-13.39-4.73c-.05,0-5.55-4.31-12.16-4.31s-12.1,4.26-12.15,4.31c-.24.19-6.08,4.73-13.4,4.73s-13.15-4.54-13.39-4.73c-.05,0-5.55-4.31-12.15-4.31S1.29,61.57,1.24,61.62L0,60.05c.25-.2,6.08-4.74,13.4-4.74s13.15,4.54,13.39,4.74c.05,0,5.55,4.3,12.15,4.3s12.11-4.26,12.16-4.3c.24-.2,6.08-4.74,13.39-4.74s13.15,4.54,13.4,4.74c0,0,5.55,4.3,12.15,4.3s12.11-4.26,12.16-4.3c.24-.2,6.08-4.74,13.39-4.74s13.15,4.54,13.4,4.74c0,0,5.55,4.3,12.15,4.3s12.1-4.26,12.16-4.3l1.24,1.57C154.29,61.81,148.46,66.35,141.14,66.35Z"/><path class="cls-5" d="M141.14,84.79c-7.32,0-13.15-4.54-13.39-4.74-.06,0-5.55-4.3-12.16-4.3s-12.1,4.26-12.15,4.3c-.25.2-6.08,4.74-13.4,4.74s-13.15-4.54-13.39-4.74c-.05,0-5.55-4.3-12.16-4.3S52.39,80,52.34,80.05c-.24.2-6.08,4.74-13.4,4.74s-13.15-4.54-13.39-4.74c-.05,0-5.55-4.3-12.15-4.3S1.29,80,1.24,80.05L0,78.48c.25-.19,6.08-4.73,13.4-4.73s13.15,4.54,13.39,4.73c.05,0,5.55,4.31,12.15,4.31s12.11-4.26,12.16-4.31c.24-.19,6.08-4.73,13.39-4.73s13.15,4.54,13.4,4.73c0,0,5.55,4.31,12.15,4.31s12.11-4.26,12.16-4.31c.24-.19,6.08-4.73,13.39-4.73s13.15,4.54,13.4,4.73c0,0,5.55,4.31,12.15,4.31s12.1-4.26,12.16-4.31l1.24,1.57C154.29,80.25,148.46,84.79,141.14,84.79Z"/></g></g></svg>